<svg height="348pt" viewBox="0 0 348 348.672" width="348pt" xmlns="http://www.w3.org/2000/svg"><path d="m63.949219 5.003906h221.433593c11.066407 0 20.03125 8.96875 20.03125 20.03125v198.605469c0 11.0625-8.964843 20.03125-20.03125 20.03125h-221.433593c-11.066407 0-20.035157-8.96875-20.035157-20.03125v-198.605469c0-11.0625 8.96875-20.03125 20.035157-20.03125zm0 0" fill="#d9ccbc"/><path d="m81.929688 34.335938h185.472656c3.246094 0 5.875 2.628906 5.875 5.871093v152.257813c0 3.242187-2.628906 5.871094-5.875 5.871094h-185.472656c-3.246094 0-5.875-2.628907-5.875-5.871094v-152.257813c0-3.242187 2.628906-5.871093 5.875-5.871093zm0 0" fill="#6dcead"/><path d="m5.332031 268.003906h338.667969v75.667969h-338.667969zm0 0" fill="#d9ccbc"/><path d="m206.332031 268.003906h-63.332031l4-24.335937h55.332031zm0 0" fill="#fdd844"/><path d="m39.167969 294.835938h22v22h-22zm0 0" fill="#f25462"/><g fill="#010101"><path d="m278.269531 192.464844v-152.257813c-.007812-6-4.871093-10.863281-10.875-10.871093h-120.398437c-2.761719 0-5 2.238281-5 5 0 2.761718 2.238281 5 5 5h120.398437c.484375 0 .875.390624.875.871093v152.257813c0 .480468-.390625.871094-.875.871094h-185.464843c-.484376 0-.875-.390626-.875-.871094v-152.257813c0-.480469.390624-.871093.875-.871093h18.738281c2.761719 0 5-2.238282 5-5 0-2.761719-2.238281-5-5-5h-18.738281c-6 .011718-10.855469 4.875-10.863282 10.871093v152.257813c.007813 6 4.871094 10.863281 10.875 10.871094h185.464844c6-.011719 10.855469-4.875 10.863281-10.871094zm0 0"/><path d="m122.667969 39.335938h3.332031c2.761719 0 5-2.238282 5-5 0-2.761719-2.238281-5-5-5h-3.332031c-2.761719 0-5 2.238281-5 5 0 2.761718 2.238281 5 5 5zm0 0"/><path d="m344 289.835938c-2.761719 0-5 2.238281-5 5v43.835937h-328.664062v-65.667969h333.664062c2.761719 0 5-2.238281 5-5 0-2.761718-2.238281-5-5-5h-133.421875l-2.355469-14.332031h77.160156c13.820313-.015625 25.023438-11.214844 25.039063-25.035156v-198.601563c-.015625-13.820312-11.21875-25.019531-25.039063-25.035156h-221.429687c-13.820313.015625-25.023437 11.214844-25.039063 25.035156v198.601563c.015626 13.820312 11.21875 25.019531 25.039063 25.035156h77.160156l-2.355469 14.332031h-133.421874c-2.761719 0-5 2.238282-5 5v75.667969c0 2.761719 2.238281 5 5 5h338.664062c2.761719 0 5-2.238281 5-5v-48.835937c0-2.761719-2.238281-5-5-5zm-295.085938-66.199219v-198.601563c.011719-8.300781 6.738282-15.027344 15.039063-15.035156h221.429687c8.300782.007812 15.027344 6.734375 15.039063 15.035156v198.601563c-.011719 8.300781-6.738281 15.027343-15.039063 15.035156h-221.429687c-8.300781-.007813-15.027344-6.734375-15.039063-15.035156zm102.328126 25.035156h46.847656l2.355468 14.332031h-51.554687zm0 0"/><path d="m39.167969 289.835938c-2.761719 0-5 2.238281-5 5v22c0 2.761718 2.238281 5 5 5h22c2.761719 0 5-2.238282 5-5v-22c0-2.761719-2.238281-5-5-5zm17 22h-12v-12h12zm0 0"/><path d="m310.167969 289.835938h-213.667969c-2.761719 0-5 2.238281-5 5 0 2.761718 2.238281 5 5 5h213.667969c2.761719 0 5-2.238282 5-5 0-2.761719-2.238281-5-5-5zm0 0"/><path d="m96.5 311.835938c-2.761719 0-5 2.238281-5 5 0 2.761718 2.238281 5 5 5h16c2.761719 0 5-2.238282 5-5 0-2.761719-2.238281-5-5-5zm0 0"/><path d="m148.835938 311.835938c-2.761719 0-5 2.238281-5 5 0 2.761718 2.238281 5 5 5h36.332031c2.761719 0 5-2.238282 5-5 0-2.761719-2.238281-5-5-5zm0 0"/><path d="m221.503906 311.835938c-2.761718 0-5 2.238281-5 5 0 2.761718 2.238282 5 5 5h36.332032c2.761718 0 5-2.238282 5-5 0-2.761719-2.238282-5-5-5zm0 0"/><path d="m310.167969 311.835938h-16c-2.761719 0-5 2.238281-5 5 0 2.761718 2.238281 5 5 5h16c2.761719 0 5-2.238282 5-5 0-2.761719-2.238281-5-5-5zm0 0"/></g></svg>